<svg width="19" height="18" viewBox="0 0 19 18" fill="none" xmlns="http://www.w3.org/2000/svg">
<path d="M13.5 0.687988C12.6554 0.701124 11.8293 0.936878 11.105 1.37144C10.3808 1.80601 9.78399 2.42399 9.37497 3.16299C8.96595 2.42399 8.36917 1.80601 7.6449 1.37144C6.92062 0.936878 6.09451 0.701124 5.24997 0.687988C3.90367 0.746481 2.63525 1.33543 1.72181 2.32616C0.808363 3.3169 0.324156 4.62888 0.374969 5.97549C0.374969 11.0567 8.59197 16.9255 8.94147 17.1745L9.37497 17.4812L9.80847 17.1745C10.158 16.927 18.375 11.0567 18.375 5.97549C18.4258 4.62888 17.9416 3.3169 17.0281 2.32616C16.1147 1.33543 14.8463 0.746481 13.5 0.687988Z" fill="#007AFF"/>
</svg>
