<svg width="14" height="18" viewBox="0 0 14 18" fill="none" xmlns="http://www.w3.org/2000/svg">
<path d="M13.875 18H12.375V14.2178C12.3744 13.6297 12.1406 13.066 11.7248 12.6502C11.309 12.2344 10.7453 12.0006 10.1572 12H4.09275C3.50475 12.0006 2.941 12.2344 2.52522 12.6502C2.10944 13.066 1.8756 13.6297 1.875 14.2178V18H0.375V14.2178C0.376191 13.2321 0.768264 12.2872 1.46522 11.5902C2.16217 10.8933 3.10711 10.5012 4.09275 10.5H10.1572C11.1429 10.5012 12.0878 10.8933 12.7848 11.5902C13.4817 12.2872 13.8738 13.2321 13.875 14.2178V18Z" fill="#ABABAB"/>
<path d="M7.125 9C6.23499 9 5.36496 8.73608 4.62494 8.24162C3.88491 7.74715 3.30814 7.04435 2.96754 6.22208C2.62695 5.39981 2.53783 4.49501 2.71147 3.6221C2.8851 2.74918 3.31369 1.94736 3.94302 1.31802C4.57236 0.688685 5.37418 0.260102 6.2471 0.0864683C7.12001 -0.0871652 8.02481 0.00194979 8.84708 0.342544C9.66934 0.683138 10.3721 1.25991 10.8666 1.99994C11.3611 2.73996 11.625 3.60999 11.625 4.5C11.6238 5.69311 11.1493 6.83701 10.3057 7.68067C9.46201 8.52432 8.31811 8.99881 7.125 9V9ZM7.125 1.5C6.53166 1.5 5.95164 1.67595 5.45829 2.00559C4.96494 2.33524 4.58043 2.80377 4.35336 3.35195C4.1263 3.90013 4.06689 4.50333 4.18265 5.08527C4.2984 5.66722 4.58412 6.20177 5.00368 6.62132C5.42324 7.04088 5.95779 7.3266 6.53973 7.44236C7.12167 7.55811 7.72487 7.4987 8.27305 7.27164C8.82123 7.04458 9.28977 6.66006 9.61941 6.16671C9.94905 5.67337 10.125 5.09335 10.125 4.5C10.125 3.70435 9.80893 2.94129 9.24632 2.37868C8.68371 1.81607 7.92065 1.5 7.125 1.5Z" fill="#ABABAB"/>
</svg>
